<?xml version="1.0" encoding="UTF-8"?>
<svg id="Layer_2" data-name="Layer 2" xmlns="http://www.w3.org/2000/svg" viewBox="0 0 390.4 465.77">
  <defs>
    <style>
      .cls-1 {
        fill: #131322;
        stroke-width: 0px;
      }
    </style>
  </defs>
  <g id="Layer_1-2" data-name="Layer 1">
    <path class="cls-1" d="m278.21,222.11c-.21-.12-.42-.24-.64-.35-6.01-3.03-13.33-.61-16.35,5.4-11.53,22.9-34.33,37.33-59.83,38-.62.02-1.24.02-1.87.02-.59,0-1.19,0-1.78-.02-37.24-.94-67.24-31.53-67.24-69s30-68.05,67.24-69c.59-.02,1.19-.02,1.78-.02.63,0,1.25,0,1.87.02,25.5.67,48.3,15.11,59.83,38.01,3.02,6.01,10.34,8.43,16.35,5.4.22-.11.43-.23.64-.35,5.54-3.2,7.67-10.21,4.76-16-15.97-31.72-47.95-51.44-83.45-51.44-1.35,0-2.7.03-4.03.09l22.6-22.6,59.49-59.49c4.76-4.76,4.76-12.46,0-17.22s-12.47-4.76-17.22,0l-76.11,76.11-46.62,46.62s-.07.06-.09.1c-16.39,14.57-27.64,34.82-30.6,57.64-.53,3.97-.8,8.02-.8,12.14s.27,8.17.8,12.14c5.96,45.78,45.2,81.24,92.58,81.24,35.5,0,67.48-19.71,83.45-51.43,2.92-5.79.78-12.81-4.76-16Z"/>
    <g>
      <g>
        <path class="cls-1" d="m34.23,379.1s-.04,0-.06,0-.04,0-.06,0c-18.81,0-34.12,15.31-34.12,34.12s15.31,34.12,34.12,34.12c.02,0,.04,0,.06,0s.04,0,.06,0c18.81,0,34.12-15.31,34.12-34.12s-15.31-34.12-34.12-34.12Zm22.43,45.44c-4.16,8.25-12.32,13.5-21.48,13.87-.24,0-.47.02-.71.02-.1,0-.2,0-.29,0-.1,0-.2,0-.29,0-.24,0-.47,0-.71-.02-9.16-.38-17.32-5.62-21.48-13.87-.12-.24-.26-.46-.42-.67-1.52-3.24-2.37-6.85-2.37-10.65s.85-7.41,2.37-10.65c.16-.21.3-.43.42-.67,4.16-8.25,12.32-13.49,21.48-13.87.24,0,.47-.02.71-.02.1,0,.2,0,.29,0,.1,0,.2,0,.29,0,.24,0,.47,0,.71.02,9.16.38,17.32,5.62,21.48,13.87.12.24.26.46.42.67,1.52,3.24,2.37,6.85,2.37,10.65s-.85,7.41-2.37,10.65c-.16.21-.3.43-.42.67Z"/>
        <path class="cls-1" d="m142.62,413.22c0-18.42-14.68-33.48-32.96-34.1-.06,0-.11,0-.17,0-.14,0-.28,0-.42,0-.19,0-.38,0-.57,0-.01,0-.02,0-.04,0-.02,0-.05,0-.07,0-18.81,0-34.12,15.31-34.12,34.12s15.31,34.12,34.12,34.12c0,0,.01,0,.02,0,.03,0,.06,0,.09,0,.19,0,.38,0,.57,0,.18,0,.35,0,.53-.01.13,0,.26,0,.39-.01l-10.87,10.87c-1.74,1.74-1.74,4.56,0,6.3.87.87,2.01,1.3,3.15,1.3s2.28-.44,3.15-1.3l25.95-25.95c.85-.77,1.67-1.59,2.44-2.44,5.16-5.71,8.43-13.16,8.78-21.36.02-.5.04-.99.04-1.5Zm-35.83,25.16c-.06,0-.13,0-.19-.01-8.82-.65-16.61-5.82-20.64-13.83-.12-.24-.26-.47-.42-.68-1.51-3.24-2.36-6.84-2.36-10.65s.85-7.41,2.36-10.65c.16-.21.3-.43.42-.68,4.16-8.25,12.32-13.49,21.48-13.87.31-.01.61-.02.92-.02h.08c.28,0,.56,0,.84.01,0,0,0,0,0,0,0,0,.01,0,.02,0,9.22.33,17.45,5.58,21.62,13.88.12.25.27.47.43.69,0,0,0,0,0,0,1.51,3.23,2.35,6.84,2.35,10.63s-.84,7.39-2.35,10.62c0,0,0,0,0,0-.16.21-.31.44-.44.69-4.32,8.57-12.95,13.9-22.54,13.9-.34,0-.67-.01-1.01-.03-.2,0-.39-.02-.59-.03Z"/>
        <path class="cls-1" d="m226.05,396.98c-2.36-8.8-8-16.16-15.9-20.72-5.58-3.22-11.78-4.75-17.93-4.59l29.54-29.54c1.74-1.74,1.74-4.56,0-6.29-1.74-1.74-4.56-1.74-6.29,0l-44.84,44.84c-1.74,1.74-1.74,4.56,0,6.29.87.87,2.01,1.3,3.15,1.3s2.28-.43,3.15-1.3l2.12-2.12c.06-.04.12-.07.19-.12,8.03-5.26,18.17-5.56,26.47-.76,5.83,3.37,10.01,8.81,11.75,15.31,1.74,6.51.85,13.3-2.52,19.14-3.37,5.83-8.81,10.01-15.31,11.75-6.51,1.74-13.3.85-19.14-2.52-4.43-2.55-7.86-6.28-10.02-10.66,0,0,0,0,0-.01-.07-.18-.16-.36-.26-.54-.19-.34-.43-.66-.72-.95-1.74-1.74-4.56-1.74-6.29,0l-2.13,2.13-40.57,40.57c-1.74,1.74-1.74,4.56,0,6.3.87.87,2.01,1.3,3.15,1.3s2.28-.44,3.15-1.3l38.65-38.65c2.77,3.81,6.35,7.08,10.61,9.53,5.26,3.04,11.09,4.59,17,4.59,2.96,0,5.95-.39,8.89-1.18,8.8-2.36,16.16-8,20.72-15.9,4.56-7.89,5.77-17.09,3.41-25.89Z"/>
        <path class="cls-1" d="m190.91,353.63c1.14,0,2.28-.43,3.15-1.3l10.2-10.2c1.74-1.74,1.74-4.56,0-6.29-1.74-1.74-4.56-1.74-6.29,0l-10.2,10.2c-1.74,1.74-1.74,4.56,0,6.29.87.87,2.01,1.3,3.15,1.3Z"/>
      </g>
      <path class="cls-1" d="m389.23,396.97c-2.36-8.8-8-16.16-15.9-20.71-5.58-3.22-11.78-4.75-17.93-4.59l29.54-29.54c1.74-1.74,1.74-4.56,0-6.29-1.74-1.74-4.56-1.74-6.29,0l-44.84,44.84c-1.74,1.74-1.74,4.56,0,6.29.87.87,2.01,1.3,3.15,1.3s2.28-.43,3.15-1.3l2.13-2.13c.06-.04.12-.07.18-.1,8.02-5.27,18.16-5.56,26.47-.76,5.83,3.37,10.01,8.81,11.75,15.31,1.74,6.51.85,13.3-2.52,19.14-6.95,12.04-22.41,16.18-34.45,9.23-7.76-4.48-12.47-12.56-12.61-21.41,0-.2.04-2.51,0-2.8v-64.46c0-2.46-1.99-4.45-4.45-4.45s-4.45,1.99-4.45,4.45v67.14c.03,3.84.69,7.57,1.93,11.07,2.65,7.53,7.92,14,15.13,18.17,5.26,3.04,11.09,4.59,17.01,4.59,2.96,0,5.95-.39,8.89-1.18,8.8-2.36,16.16-8,20.72-15.9,4.55-7.89,5.76-17.09,3.41-25.89Z"/>
      <path class="cls-1" d="m313.26,405.95s0-.06,0-.09c0-.07,0-.13,0-.2,0-.2,0-.39,0-.59,0-.08,0-.16,0-.24,0-.1,0-.21-.01-.31,0,0,0,0,0,0-.02-.61-.07-1.22-.12-1.84,0,0,0,0,0,0,0-.06-.01-.11-.02-.17,0,0,0,0,0,0-.03-.27-.06-.53-.09-.8-.02-.13-.03-.25-.05-.38-.02-.12-.03-.25-.05-.37-.03-.21-.06-.43-.1-.64,0,0,0-.01,0-.02-.27-1.62-.65-3.2-1.13-4.73-.04-.12-.08-.25-.12-.37-.02-.05-.03-.1-.05-.14-.02-.05-.04-.11-.05-.16-.02-.04-.03-.09-.05-.13-.06-.18-.12-.35-.18-.53-.02-.05-.03-.09-.05-.14,0-.02-.02-.05-.03-.07-.14-.37-.28-.74-.42-1.1,0-.01,0-.02-.01-.04-.07-.17-.14-.34-.22-.52,0,0,0,0,0,0-2.88-6.75-7.83-12.36-14.3-16.1-8.5-4.91-18.43-5.87-27.46-2.96-.15.05-.3.1-.46.15-.09.03-.18.06-.27.09-.07.02-.14.05-.21.07-.04.01-.07.03-.11.04-5.32,1.88-10.04,5.04-13.78,9.12v-43.79c0-2.46-1.99-4.45-4.45-4.45s-4.45,1.99-4.45,4.45v64.36c-.06.82-.09,1.65-.09,2.48s.03,1.66.09,2.48c.22,3.07.85,6.02,1.83,8.81,4.33,12.3,15.52,21.4,28.96,22.66.34.03.68.06,1.02.09.03,0,.05,0,.08,0,.29.02.58.03.86.04.09,0,.18,0,.27.01.12,0,.24,0,.36,0,.22,0,.43,0,.65,0,0,0,0,0,.01,0,0,0,.01,0,.02,0,.01,0,.03,0,.04,0,0,0,.01,0,.02,0,.19,0,.39,0,.58,0,.15,0,.3,0,.46,0,.02,0,.04,0,.07,0,5.03-.15,9.78-1.41,14.04-3.52.25-.12.5-.25.74-.38.12-.06.24-.13.36-.2.21-.11.41-.22.61-.34.01,0,.03-.01.04-.02.05-.02.1-.05.15-.08,0,0,.02-.01.03-.02.19-.11.39-.22.58-.34.01,0,.03-.02.04-.03,0,0,.01,0,.02-.01,3.5-2.12,6.59-4.86,9.13-8.12.06-.08.12-.15.18-.23.09-.11.18-.23.26-.34.14-.19.28-.38.42-.58,2.43-3.36,4.25-7.19,5.32-11.32,0-.03.01-.05.02-.08,0-.01,0-.03.01-.04,0,0,0,0,0,0,0-.03.02-.07.02-.11.08-.33.16-.67.24-1,.01-.06.03-.11.04-.16.02-.08.03-.15.05-.23,0-.03.01-.06.02-.09.01-.07.03-.14.05-.22.02-.1.04-.2.06-.3.03-.14.05-.28.08-.42,0-.02,0-.05.01-.07.03-.16.06-.33.08-.5,0,0,0,0,0,0,.1-.61.18-1.22.24-1.83,0-.04,0-.08.01-.12,0-.01,0-.03,0-.04,0-.07.01-.13.02-.2.02-.19.03-.38.05-.57,0-.04,0-.08,0-.11.02-.23.03-.47.04-.7,0,0,0-.01,0-.02,0-.02,0-.04,0-.05,0-.04,0-.09,0-.13,0-.22.02-.44.02-.66,0,0,0-.01,0-.02v-.02c0-.25,0-.49.01-.74Zm-57.05-10.77c2.06-4.34,5.39-8.13,9.44-10.69,5.89-3.73,13.25-4.83,19.98-3.02,14.17,3.8,22.36,20.12,16.9,33.73-2.45,6.1-7.42,11.19-13.46,13.77-6.6,2.83-14.34,2.69-20.82-.42-2.82-1.35-5.41-3.23-7.55-5.52-4.81-5.17-7.1-12.07-6.78-19.09.14-3.02,1-6.04,2.29-8.77Z"/>
    </g>
  </g>
</svg>